<svg width="60" height="70" viewBox="0 0 60 70" fill="none" xmlns="http://www.w3.org/2000/svg">
<path d="M56.9392 26.3778C54.2859 24.1668 50.643 23.9818 47.8486 25.684C48.0778 24.4195 48.198 23.1176 48.198 21.7882C48.198 9.77416 38.4238 0 26.4096 0C14.3956 0 4.62158 9.77416 4.62158 21.7882C4.62158 27.3085 6.68631 32.3548 10.0825 36.1983C4.36209 38.1962 0.246582 43.6458 0.246582 50.0392V70H25.7512V56.922H42.1138L58.0066 37.3618C60.7032 34.0428 60.2244 29.1156 56.9392 26.3778ZM21.6496 52.8205V57.1799H4.34814V50.0393C4.34814 44.2195 9.08285 39.4848 14.9027 39.4848H35.3255C36.5983 39.4848 37.634 40.5204 37.634 41.7934C37.634 43.0664 36.5983 44.1019 35.3255 44.1019H26.6066V48.2035H35.3253C38.8599 48.2035 41.7354 45.3279 41.7354 41.7934C41.7354 40.7764 41.4961 39.8143 41.0727 38.9592L49.109 29.9186C50.4624 28.3959 52.7486 28.2249 54.3134 29.5291C55.8826 30.8366 56.1114 33.1903 54.8232 34.7755L40.1615 52.8206H21.6496V52.8205ZM21.6496 65.8984H4.34814V61.2813H21.6496V65.8984ZM26.4096 4.10156C36.1621 4.10156 44.0963 12.0358 44.0963 21.7882C44.0963 27.2474 41.6096 32.1362 37.7101 35.3831H15.1093C11.2098 32.1362 8.72314 27.2474 8.72314 21.7882C8.72314 12.0358 16.6572 4.10156 26.4096 4.10156Z" fill="#FCCA3A"/>
<path d="M19.6471 22.5938C22.4988 22.5938 24.651 20.7105 24.651 17.3476C24.651 14.0117 22.4988 12.1016 19.6471 12.1016C16.7954 12.1016 14.6431 14.0117 14.6431 17.3476C14.6432 20.7105 16.7954 22.5938 19.6471 22.5938ZM19.6471 15.007C20.239 15.007 20.8308 15.5451 20.8308 17.3475C20.8308 19.1501 20.239 19.6881 19.6471 19.6881C19.0553 19.6881 18.4634 19.15 18.4634 17.3475C18.4634 15.5451 19.0553 15.007 19.6471 15.007Z" fill="#FCCA3A"/>
<path d="M28.4429 26.2285C28.4429 29.5915 30.5951 31.4746 33.4468 31.4746C36.2985 31.4746 38.4508 29.5915 38.4508 26.2285C38.4508 22.8925 36.2986 20.9824 33.4468 20.9824C30.595 20.9824 28.4429 22.8925 28.4429 26.2285ZM34.6305 26.2285C34.6305 28.0311 34.0386 28.5691 33.4468 28.5691C32.8549 28.5691 32.2631 28.031 32.2631 26.2285C32.2631 24.426 32.8549 23.888 33.4468 23.888C34.0386 23.888 34.6305 24.426 34.6305 26.2285Z" fill="#FCCA3A"/>
<path d="M22.3895 31.2072L35.2491 12.375H30.7025L17.8428 31.2072H22.3895Z" fill="#FCCA3A"/>
</svg>
